<svg width="32" height="32" viewBox="0 0 1465 1465" fill="none" xmlns="http://www.w3.org/2000/svg">
<path d="M702.461 108.39C713.533 103.804 719.069 101.511 724.798 100.603C729.876 99.7989 735.05 99.7989 740.128 100.603C745.856 101.511 751.393 103.804 762.465 108.39L1152.53 269.962C1163.61 274.548 1169.14 276.842 1173.83 280.25C1177.99 283.273 1181.65 286.931 1184.68 291.091C1188.08 295.783 1190.38 301.319 1194.96 312.392L1356.54 702.46C1361.12 713.533 1363.42 719.069 1364.32 724.797C1365.13 729.876 1365.13 735.05 1364.32 740.128C1363.42 745.856 1361.12 751.393 1356.54 762.465L1194.96 1152.53C1190.38 1163.61 1188.08 1169.14 1184.68 1173.83C1181.65 1177.99 1177.99 1181.65 1173.83 1184.68C1169.14 1188.08 1163.61 1190.38 1152.53 1194.96L762.465 1356.54C751.393 1361.12 745.856 1363.42 740.128 1364.32C735.05 1365.13 729.876 1365.13 724.798 1364.32C719.069 1363.42 713.533 1361.12 702.461 1356.54L312.392 1194.96C301.319 1190.38 295.783 1188.08 291.091 1184.68C286.931 1181.65 283.273 1177.99 280.251 1173.83C276.842 1169.14 274.548 1163.61 269.962 1152.53L108.39 762.465C103.804 751.392 101.511 745.856 100.603 740.128C99.799 735.05 99.799 729.876 100.603 724.797C101.511 719.069 103.804 713.533 108.39 702.46L269.962 312.392C274.548 301.319 276.842 295.783 280.251 291.091C283.273 286.931 286.931 283.273 291.091 280.25C295.783 276.842 301.319 274.548 312.392 269.962L702.461 108.39Z" fill="url(#g)"/>
<defs>
<radialGradient id="g" cx="0" cy="0" r="1" gradientUnits="userSpaceOnUse" gradientTransform="translate(732.463 732.463) rotate(90) scale(636.5)">
<stop stop-color="#6366F1"/>
<stop offset="0.14" stop-color="#3B82F6"/>
<stop offset="0.28" stop-color="#06B6D4"/>
<stop offset="0.42" stop-color="#22C55E"/>
<stop offset="0.57" stop-color="#84CC16"/>
<stop offset="0.71" stop-color="#EAB308"/>
<stop offset="0.85" stop-color="#F97316"/>
<stop offset="1" stop-color="#EF4444"/>
</radialGradient>
</defs>
</svg>
