<svg width="6216" height="1465" viewBox="0 0 6216 1465" fill="none" xmlns="http://www.w3.org/2000/svg">
<g filter="url(#filter0_ing_28_4)">
<path d="M702.461 108.39C713.533 103.804 719.069 101.511 724.798 100.603C729.876 99.7989 735.05 99.7989 740.128 100.603C745.856 101.511 751.393 103.804 762.465 108.39L1152.53 269.962C1163.61 274.548 1169.14 276.842 1173.83 280.25C1177.99 283.273 1181.65 286.931 1184.68 291.091C1188.08 295.783 1190.38 301.319 1194.96 312.392L1356.54 702.46C1361.12 713.533 1363.42 719.069 1364.32 724.797C1365.13 729.876 1365.13 735.05 1364.32 740.128C1363.42 745.856 1361.12 751.393 1356.54 762.465L1194.96 1152.53C1190.38 1163.61 1188.08 1169.14 1184.68 1173.83C1181.65 1177.99 1177.99 1181.65 1173.83 1184.68C1169.14 1188.08 1163.61 1190.38 1152.53 1194.96L762.465 1356.54C751.393 1361.12 745.856 1363.42 740.128 1364.32C735.05 1365.13 729.876 1365.13 724.798 1364.32C719.069 1363.42 713.533 1361.12 702.461 1356.54L312.392 1194.96C301.319 1190.38 295.783 1188.08 291.091 1184.68C286.931 1181.65 283.273 1177.99 280.251 1173.83C276.842 1169.14 274.548 1163.61 269.962 1152.53L108.39 762.465C103.804 751.392 101.511 745.856 100.603 740.128C99.799 735.05 99.799 729.876 100.603 724.797C101.511 719.069 103.804 713.533 108.39 702.46L269.962 312.392C274.548 301.319 276.842 295.783 280.251 291.091C283.273 286.931 286.931 283.273 291.091 280.25C295.783 276.842 301.319 274.548 312.392 269.962L702.461 108.39Z" fill="url(#paint0_radial_28_4)"/>
</g>
<path d="M6037.68 435.463C6067.61 435.463 6094.95 441.794 6119.7 454.457C6145.02 466.544 6164.88 483.812 6179.27 506.259C6194.24 528.707 6201.72 553.745 6201.72 581.373C6201.72 654.471 6168.62 700.518 6102.43 719.512V722.966C6177.83 740.233 6215.53 789.733 6215.53 871.466C6215.53 902.547 6207.76 930.175 6192.22 954.349C6177.26 977.948 6156.54 996.367 6130.06 1009.61C6103.58 1022.84 6074.52 1029.46 6042.86 1029.46H5642.25V435.463H6037.68ZM5833.06 666.847H5964.29C5976.95 666.847 5987.32 662.53 5995.37 653.896C6004.01 644.687 6008.32 633.463 6008.32 620.224V611.591C6008.32 598.928 6004.01 588.28 5995.37 579.646C5986.74 570.437 5976.38 565.832 5964.29 565.832H5833.06V666.847ZM5833.06 891.323H5978.11C5990.77 891.323 6001.13 887.006 6009.19 878.373C6017.82 869.163 6022.14 857.939 6022.14 844.701V836.067C6022.14 822.829 6017.82 811.893 6009.19 803.259C6001.13 794.05 5990.77 789.445 5978.11 789.445H5833.06V891.323Z" fill="white"/>
<path d="M5368.29 1029.46L5343.25 945.716H5135.18L5110.14 1029.46H4915.02L5131.73 435.463H5353.61L5570.32 1029.46H5368.29ZM5174.9 812.756H5303.54L5241.38 601.23H5237.92L5174.9 812.756Z" fill="white"/>
<path d="M4394.4 435.463H4585.21V877.509H4889.98V1029.46H4394.4V435.463Z" fill="white"/>
<path d="M4089.35 1029.46V815.346C4089.35 788.87 4090.22 761.817 4091.94 734.19C4094.24 705.986 4096.55 682.387 4098.85 663.393C4101.15 644.399 4102.59 632.312 4103.17 627.131H4099.71L3990.06 1029.46H3840.7L3730.19 627.995H3726.74C3727.31 633.175 3728.75 645.262 3731.05 664.256C3733.93 682.675 3736.52 705.986 3738.82 734.19C3741.13 761.817 3742.28 788.87 3742.28 815.346V1029.46H3567.01V435.463H3836.38L3926.17 778.221H3929.63L4018.56 435.463H4278.43V1029.46H4089.35Z" fill="white"/>
<path d="M3003.24 435.463H3194.05V877.509H3498.82V1029.46H3003.24V435.463Z" fill="white"/>
<path d="M2380.16 435.463H2893.87V577.919H2570.97V659.939H2847.25V796.352H2570.97V887.006H2899.91V1029.46H2380.16V435.463Z" fill="white"/>
<path d="M2061.57 1029.46V804.123H1851.77V1029.46H1660.96V435.463H1851.77V652.169H2061.57V435.463H2252.37V1029.46H2061.57Z" fill="white"/>
<defs>
<filter id="filter0_ing_28_4" x="0" y="0" width="1464.93" height="1464.93" filterUnits="userSpaceOnUse" color-interpolation-filters="sRGB">
<feFlood flood-opacity="0" result="BackgroundImageFix"/>
<feBlend mode="normal" in="SourceGraphic" in2="BackgroundImageFix" result="shape"/>
<feColorMatrix in="SourceAlpha" type="matrix" values="0 0 0 0 0 0 0 0 0 0 0 0 0 0 0 0 0 0 127 0" result="hardAlpha"/>
<feOffset dy="-6"/>
<feGaussianBlur stdDeviation="4.35"/>
<feComposite in2="hardAlpha" operator="arithmetic" k2="-1" k3="1"/>
<feColorMatrix type="matrix" values="0 0 0 0 0.0411095 0 0 0 0 0.00283801 0 0 0 0 0.00283801 0 0 0 0.25 0"/>
<feBlend mode="normal" in2="shape" result="effect1_innerShadow_28_4"/>
<feTurbulence type="fractalNoise" baseFrequency="0.58823525905609131 0.58823525905609131" stitchTiles="stitch" numOctaves="3" result="noise" seed="4223" />
<feColorMatrix in="noise" type="luminanceToAlpha" result="alphaNoise" />
<feComponentTransfer in="alphaNoise" result="coloredNoise1">
<feFuncA type="discrete" tableValues="0 0 0 0 0 0 0 0 0 0 1 1 1 1 1 1 1 1 1 1 1 1 1 1 1 1 1 1 1 1 1 1 1 1 1 1 1 1 1 0 0 0 0 0 0 0 0 0 0 0 0 0 0 0 0 0 0 0 0 0 0 0 0 0 0 0 0 0 0 0 0 0 0 0 0 0 0 0 0 0 0 0 0 0 0 0 0 0 0 0 0 0 0 0 0 0 0 0 0 0 "/>
</feComponentTransfer>
<feComposite operator="in" in2="effect1_innerShadow_28_4" in="coloredNoise1" result="noise1Clipped" />
<feFlood flood-color="rgba(0, 0, 0, 0.05)" result="color1Flood" />
<feComposite operator="in" in2="noise1Clipped" in="color1Flood" result="color1" />
<feMerge result="effect2_noise_28_4">
<feMergeNode in="effect1_innerShadow_28_4" />
<feMergeNode in="color1" />
</feMerge>
<feTurbulence type="fractalNoise" baseFrequency="0.021367521956562996 0.021367521956562996" numOctaves="3" seed="8444" />
<feDisplacementMap in="effect2_noise_28_4" scale="200" xChannelSelector="R" yChannelSelector="G" result="displacedImage" width="100%" height="100%" />
<feMerge result="effect3_texture_28_4">
<feMergeNode in="displacedImage"/>
</feMerge>
</filter>
<radialGradient id="paint0_radial_28_4" cx="0" cy="0" r="1" gradientUnits="userSpaceOnUse" gradientTransform="translate(732.463 732.463) rotate(90) scale(636.5)">
<stop stop-color="#6366F1"/>
<stop offset="0.14" stop-color="#3B82F6"/>
<stop offset="0.28" stop-color="#06B6D4"/>
<stop offset="0.42" stop-color="#22C55E"/>
<stop offset="0.57" stop-color="#84CC16"/>
<stop offset="0.71" stop-color="#EAB308"/>
<stop offset="0.850962" stop-color="#F97316"/>
<stop offset="1" stop-color="#EF4444"/>
</radialGradient>
</defs>
</svg>
