<svg width="3390" height="1962" viewBox="0 0 3390 1962" fill="none" xmlns="http://www.w3.org/2000/svg">
<g filter="url(#filter0_ing_1_17)">
<path d="M1664.54 108.39C1675.62 103.804 1681.15 101.511 1686.88 100.603C1691.96 99.7989 1697.13 99.7989 1702.21 100.603C1707.94 101.511 1713.48 103.804 1724.55 108.39L2114.62 269.962C2125.69 274.548 2131.23 276.842 2135.92 280.25C2140.08 283.273 2143.74 286.931 2146.76 291.091C2150.17 295.783 2152.46 301.319 2157.05 312.392L2318.62 702.46C2323.2 713.533 2325.5 719.069 2326.41 724.797C2327.21 729.876 2327.21 735.05 2326.41 740.128C2325.5 745.856 2323.2 751.393 2318.62 762.465L2157.05 1152.53C2152.46 1163.61 2150.17 1169.14 2146.76 1173.83C2143.74 1177.99 2140.08 1181.65 2135.92 1184.68C2131.23 1188.08 2125.69 1190.38 2114.62 1194.96L1724.55 1356.54C1713.48 1361.12 1707.94 1363.42 1702.21 1364.32C1697.13 1365.13 1691.96 1365.13 1686.88 1364.32C1681.15 1363.42 1675.62 1361.12 1664.54 1356.54L1274.47 1194.96C1263.4 1190.38 1257.87 1188.08 1253.17 1184.68C1249.01 1181.65 1245.36 1177.99 1242.33 1173.83C1238.92 1169.14 1236.63 1163.61 1232.04 1152.53L1070.47 762.465C1065.89 751.392 1063.59 745.856 1062.69 740.128C1061.88 735.05 1061.88 729.876 1062.69 724.797C1063.59 719.069 1065.89 713.533 1070.47 702.46L1232.04 312.392C1236.63 301.319 1238.92 295.783 1242.33 291.091C1245.36 286.931 1249.01 283.273 1253.17 280.25C1257.87 276.842 1263.4 274.548 1274.47 269.962L1664.54 108.39Z" fill="url(#paint0_radial_1_17)"/>
</g>
<path d="M3256.75 1519.96C3279.02 1519.96 3299.36 1524.67 3317.78 1534.1C3336.63 1543.09 3351.4 1555.94 3362.11 1572.64C3373.24 1589.35 3378.81 1607.98 3378.81 1628.54C3378.81 1682.93 3354.19 1717.19 3304.93 1731.33V1733.9C3361.04 1746.74 3389.09 1783.58 3389.09 1844.4C3389.09 1867.52 3383.31 1888.08 3371.75 1906.07C3360.61 1923.63 3345.19 1937.34 3325.49 1947.19C3305.79 1957.04 3284.16 1961.96 3260.6 1961.96H2962.51V1519.96H3256.75ZM3104.49 1692.14H3202.14C3211.56 1692.14 3219.27 1688.92 3225.27 1682.5C3231.69 1675.65 3234.91 1667.3 3234.91 1657.45V1651.02C3234.91 1641.6 3231.69 1633.67 3225.27 1627.25C3218.84 1620.4 3211.13 1616.97 3202.14 1616.97H3104.49V1692.14ZM3104.49 1859.17H3212.42C3221.84 1859.17 3229.55 1855.96 3235.55 1849.54C3241.97 1842.68 3245.18 1834.33 3245.18 1824.48V1818.06C3245.18 1808.21 3241.97 1800.07 3235.55 1793.64C3229.55 1786.79 3221.84 1783.36 3212.42 1783.36H3104.49V1859.17Z" fill="white"/>
<path d="M2758.65 1961.96L2740.02 1899.65H2585.19L2566.56 1961.96H2421.37L2582.62 1519.96H2747.73L2908.98 1961.96H2758.65ZM2614.74 1800.71H2710.47L2664.21 1643.31H2661.64L2614.74 1800.71Z" fill="white"/>
<path d="M2033.98 1519.96H2175.96V1848.89H2402.74V1961.96H2033.98V1519.96Z" fill="white"/>
<path d="M1806.98 1961.96V1802.64C1806.98 1782.94 1807.63 1762.81 1808.91 1742.25C1810.62 1721.26 1812.34 1703.7 1814.05 1689.57C1815.76 1675.43 1816.83 1666.44 1817.26 1662.58H1814.69L1733.1 1961.96H1621.96L1539.73 1663.23H1537.16C1537.59 1667.08 1538.66 1676.08 1540.37 1690.21C1542.51 1703.92 1544.44 1721.26 1546.15 1742.25C1547.87 1762.81 1548.72 1782.94 1548.72 1802.64V1961.96H1418.31V1519.96H1618.75L1685.56 1775.01H1688.13L1754.3 1519.96H1947.68V1961.96H1806.98Z" fill="white"/>
<path d="M998.797 1519.96H1140.78V1848.89H1367.56V1961.96H998.797V1519.96Z" fill="white"/>
<path d="M535.16 1519.96H917.413V1625.97H677.14V1687H882.721V1788.5H677.14V1855.96H921.91V1961.96H535.16V1519.96Z" fill="white"/>
<path d="M298.093 1961.96V1794.29H141.98V1961.96H0V1519.96H141.98V1681.22H298.093V1519.96H440.073V1961.96H298.093Z" fill="white"/>
<defs>
<filter id="filter0_ing_1_17" x="962.083" y="0" width="1464.93" height="1464.93" filterUnits="userSpaceOnUse" color-interpolation-filters="sRGB">
<feFlood flood-opacity="0" result="BackgroundImageFix"/>
<feBlend mode="normal" in="SourceGraphic" in2="BackgroundImageFix" result="shape"/>
<feColorMatrix in="SourceAlpha" type="matrix" values="0 0 0 0 0 0 0 0 0 0 0 0 0 0 0 0 0 0 127 0" result="hardAlpha"/>
<feOffset dy="-6"/>
<feGaussianBlur stdDeviation="4.35"/>
<feComposite in2="hardAlpha" operator="arithmetic" k2="-1" k3="1"/>
<feColorMatrix type="matrix" values="0 0 0 0 0.0411095 0 0 0 0 0.00283801 0 0 0 0 0.00283801 0 0 0 0.25 0"/>
<feBlend mode="normal" in2="shape" result="effect1_innerShadow_1_17"/>
<feTurbulence type="fractalNoise" baseFrequency="0.58823525905609131 0.58823525905609131" stitchTiles="stitch" numOctaves="3" result="noise" seed="4223" />
<feColorMatrix in="noise" type="luminanceToAlpha" result="alphaNoise" />
<feComponentTransfer in="alphaNoise" result="coloredNoise1">
<feFuncA type="discrete" tableValues="0 0 0 0 0 0 0 0 0 0 1 1 1 1 1 1 1 1 1 1 1 1 1 1 1 1 1 1 1 1 1 1 1 1 1 1 1 1 1 0 0 0 0 0 0 0 0 0 0 0 0 0 0 0 0 0 0 0 0 0 0 0 0 0 0 0 0 0 0 0 0 0 0 0 0 0 0 0 0 0 0 0 0 0 0 0 0 0 0 0 0 0 0 0 0 0 0 0 0 0 "/>
</feComponentTransfer>
<feComposite operator="in" in2="effect1_innerShadow_1_17" in="coloredNoise1" result="noise1Clipped" />
<feFlood flood-color="rgba(0, 0, 0, 0.05)" result="color1Flood" />
<feComposite operator="in" in2="noise1Clipped" in="color1Flood" result="color1" />
<feMerge result="effect2_noise_1_17">
<feMergeNode in="effect1_innerShadow_1_17" />
<feMergeNode in="color1" />
</feMerge>
<feTurbulence type="fractalNoise" baseFrequency="0.021367521956562996 0.021367521956562996" numOctaves="3" seed="8444" />
<feDisplacementMap in="effect2_noise_1_17" scale="200" xChannelSelector="R" yChannelSelector="G" result="displacedImage" width="100%" height="100%" />
<feMerge result="effect3_texture_1_17">
<feMergeNode in="displacedImage"/>
</feMerge>
</filter>
<radialGradient id="paint0_radial_1_17" cx="0" cy="0" r="1" gradientUnits="userSpaceOnUse" gradientTransform="translate(1694.55 732.463) rotate(90) scale(636.5)">
<stop stop-color="#6366F1"/>
<stop offset="0.14" stop-color="#3B82F6"/>
<stop offset="0.28" stop-color="#06B6D4"/>
<stop offset="0.42" stop-color="#22C55E"/>
<stop offset="0.57" stop-color="#84CC16"/>
<stop offset="0.71" stop-color="#EAB308"/>
<stop offset="0.850962" stop-color="#F97316"/>
<stop offset="1" stop-color="#EF4444"/>
</radialGradient>
</defs>
</svg>
